<svg xmlns="http://www.w3.org/2000/svg" version="1.1" xmlns:xlink="http://www.w3.org/1999/xlink" xmlns:svgjs="http://svgjs.dev/svgjs" viewBox="0 0 800 800"><defs><symbol id="bbburst-shape-3" viewBox="0 0 131 127"><path d="m66 0 66 63.5L66 127 0 63.5 66 0Z"></path></symbol><symbol id="bbburst-shape-9" viewBox="0 0 182 172"><path d="M13.5809 69.845 91 13.5967l77.419 56.2483-29.571 91.012H43.1524L13.5809 69.845Z" stroke-width="22"></path></symbol></defs><use xlink:href="#bbburst-shape-9" width="53.364723869456256" opacity="0.39013629679530426" transform="matrix(0.9996230341609126,0.027455228553610246,-0.027455228553610246,0.9996230341609126,160.65768050626863,-159.975606936107)" fill="none" stroke="#ff7820"></use><use xlink:href="#bbburst-shape-3" width="38.27089425649204" opacity="0.41761114246576114" transform="matrix(0.837985658192502,0.5456922545388372,-0.5456922545388372,0.837985658192502,743.5535748401387,274.91857438433897)" fill="#ff7820"></use><use xlink:href="#bbburst-shape-9" width="29.226342226502545" opacity="0.7105307855385653" transform="matrix(0.9764761419712557,0.2156254719668623,-0.2156254719668623,0.9764761419712557,517.0740832056838,128.28891933034078)" fill="none" stroke="#ffc110"></use><use xlink:href="#bbburst-shape-9" width="37.606254542020196" opacity="0.37193356036885916" transform="matrix(0.806048172521393,-0.5918499333234081,0.5918499333234081,0.806048172521393,403.0160669940524,-33.244195887769024)" fill="none" stroke="#ff7820"></use><use xlink:href="#bbburst-shape-9" width="42.384659937943525" opacity="-0.05992143578389375" transform="matrix(0.7754062437966025,-0.6314627123443188,0.6314627123443188,0.7754062437966025,-206.3536710316304,440.3724692841215)" fill="none" stroke="#fee440"></use><use xlink:href="#bbburst-shape-9" width="47.95293526526345" opacity="-0.057553097318326474" transform="matrix(0.9077109366199597,0.41959606235106095,-0.41959606235106095,0.9077109366199597,219.01567567906716,-319.01509372897766)" fill="none" stroke="#ff7820"></use><use xlink:href="#bbburst-shape-9" width="42.95658615098354" opacity="0.5400484818417544" transform="matrix(0.7725825312265481,-0.6349143504785348,0.6349143504785348,0.7725825312265481,110.91523556843526,-101.78376952648665)" fill="none" stroke="#ffc110"></use><use xlink:href="#bbburst-shape-3" width="39.26365020211962" opacity="0.3775042976461117" transform="matrix(0.9516150005810011,0.30729284187761546,-0.30729284187761546,0.9516150005810011,432.6966541393183,284.1470661840475)" fill="#fee440"></use><use xlink:href="#bbburst-shape-3" width="37.62805185849178" opacity="0.1994582275498239" transform="matrix(0.7504004714824344,0.6609834584911639,-0.6609834584911639,0.7504004714824344,388.36173816066616,334.7627703426397)" fill="#ff7820"></use><use xlink:href="#bbburst-shape-3" width="52.68013630158575" opacity="-0.052646234345679055" transform="matrix(0.8944995928487255,0.4470687624890207,-0.4470687624890207,0.8944995928487255,886.3340142784921,368.9464092298379)" fill="#ff7820"></use><use xlink:href="#bbburst-shape-9" width="50.290476137596485" opacity="0.49956859211973736" transform="matrix(0.9861127380662269,-0.166077294726067,0.166077294726067,0.9861127380662269,347.6736627228605,231.19557032213697)" fill="none" stroke="#fee440"></use><use xlink:href="#bbburst-shape-9" width="56.54944663415083" opacity="0.2397948092309059" transform="matrix(0.7602869565998531,0.6495873641198181,-0.6495873641198181,0.7602869565998531,653.0040551322343,-264.5598301135375)" fill="none" stroke="#ff7820"></use><use xlink:href="#bbburst-shape-9" width="33.64130640756558" opacity="0.7693938181232703" transform="matrix(0.8484016043049831,0.5293531125937873,-0.5293531125937873,0.8484016043049831,695.4918350606606,17.131503956174583)" fill="none" stroke="#ffc110"></use><use xlink:href="#bbburst-shape-9" width="39.47067458642599" opacity="0.2106190569123525" transform="matrix(0.7222280083950465,-0.6916550468909517,0.6916550468909517,0.7222280083950465,-233.38991386598227,29.595601119566197)" fill="none" stroke="#ffc110"></use><use xlink:href="#bbburst-shape-3" width="30.053655022854144" opacity="0.7479278120575465" transform="matrix(0.7528967877542139,-0.6581386077334972,0.6581386077334972,0.7528967877542139,98.41047387604692,218.9949378293827)" fill="#fee440"></use><use xlink:href="#bbburst-shape-9" width="35.354116180904285" opacity="0.5691324433062215" transform="matrix(0.7874477284651211,0.6163814362349996,-0.6163814362349996,0.7874477284651211,816.091932168351,10.77001272312748)" fill="none" stroke="#ff7820"></use><use xlink:href="#bbburst-shape-9" width="45.68824347665326" opacity="0.5873804126947841" transform="matrix(0.9786876487825319,0.20535453761852812,-0.20535453761852812,0.9786876487825319,642.4648576750526,37.112791187799985)" fill="none" stroke="#fee440"></use><use xlink:href="#bbburst-shape-3" width="31.702907536522652" opacity="0.6369486390067018" transform="matrix(0.966596806998855,-0.2563018000319512,0.2563018000319512,0.966596806998855,165.15309896969688,131.59593490921304)" fill="#ff7820"></use><use xlink:href="#bbburst-shape-3" width="30.94022630338858" opacity="0.1372710175849985" transform="matrix(0.7083522611047669,-0.705859103637379,0.705859103637379,0.7083522611047669,461.6782688759157,-29.343189110435986)" fill="#ff7820"></use><use xlink:href="#bbburst-shape-3" width="39.918401063463605" opacity="0.6228388981353574" transform="matrix(0.7882730454310399,0.6153256096140268,-0.6153256096140268,0.7882730454310399,469.8603916146799,16.887400777108553)" fill="#ffc110"></use><use xlink:href="#bbburst-shape-9" width="35.821815100279075" opacity="0.20203616159229842" transform="matrix(0.7104316884361356,-0.7037661657580461,0.7037661657580461,0.7104316884361356,365.2695296618835,-119.75609410324486)" fill="none" stroke="#ff7820"></use><use xlink:href="#bbburst-shape-9" width="46.375019617710834" opacity="0.4330081625621903" transform="matrix(0.971450225440649,-0.23724346037628155,0.23724346037628155,0.971450225440649,358.1939170510923,-227.04337270411062)" fill="none" stroke="#fee440"></use><use xlink:href="#bbburst-shape-3" width="51.93883718440822" opacity="-0.0469950215430579" transform="matrix(0.8825586641019995,-0.47020230158783166,0.47020230158783166,0.8825586641019995,523.2682557455014,-272.5742488985016)" fill="#ff7820"></use><use xlink:href="#bbburst-shape-3" width="43.79436729545223" opacity="0.10943936583001512" transform="matrix(0.9947347074422486,0.1024834709101137,-0.1024834709101137,0.9947347074422486,65.14121190009706,187.87242219661073)" fill="#ff7820"></use><use xlink:href="#bbburst-shape-3" width="38.77993212475022" opacity="0.19032665361306755" transform="matrix(0.9903434256894341,-0.13863585104047355,0.13863585104047355,0.9903434256894341,257.0261044052595,364.49017718192465)" fill="#ffc110"></use><use xlink:href="#bbburst-shape-9" width="51.67959089603673" opacity="0.19111654164765823" transform="matrix(0.979063044958125,-0.20355724992572605,0.20355724992572605,0.979063044958125,67.14198111386379,-271.9933549282079)" fill="none" stroke="#ffc110"></use><use xlink:href="#bbburst-shape-3" width="41.21715463849364" opacity="0.12703502898758445" transform="matrix(0.9766544771842065,-0.2148162754449586,0.2148162754449586,0.9766544771842065,467.7953446517012,365.99460852882595)" fill="#fee440"></use><use xlink:href="#bbburst-shape-9" width="32.75798615946331" opacity="0.40922938757501015" transform="matrix(0.7426508042036549,-0.669678865588324,0.669678865588324,0.7426508042036549,-36.502067068621955,328.77678855187486)" fill="none" stroke="#ffc110"></use><use xlink:href="#bbburst-shape-9" width="41.41729154718142" opacity="0.3010882088452259" transform="matrix(0.9991226205596003,-0.04188065288551458,0.04188065288551458,0.9991226205596003,676.384438828284,-19.60092730471814)" fill="none" stroke="#fee440"></use><use xlink:href="#bbburst-shape-3" width="37.91806171923729" opacity="0.6036060520479689" transform="matrix(0.7596743315895931,0.6503037059127874,-0.6503037059127874,0.7596743315895931,775.3046361728688,206.1710958602397)" fill="#ffc110"></use><use xlink:href="#bbburst-shape-3" width="39.5844611808557" opacity="0.560729223422445" transform="matrix(0.8392751483869189,0.5437069296046495,-0.5437069296046495,0.8392751483869189,409.9669579504266,105.19567275370531)" fill="#ffc110"></use><use xlink:href="#bbburst-shape-9" width="53.917227443782615" opacity="0.39811066901635817" transform="matrix(0.8888535813290049,-0.4581913475379059,0.4581913475379059,0.8888535813290049,434.1910567787717,178.9255622881991)" fill="none" stroke="#ff7820"></use><use xlink:href="#bbburst-shape-9" width="28.784899451839873" opacity="0.7481028435208908" transform="matrix(0.8282335800264372,0.5603830269704742,-0.5603830269704742,0.8282335800264372,606.3163550875371,-52.71288707974162)" fill="none" stroke="#ffc110"></use><use xlink:href="#bbburst-shape-3" width="34.741285483819006" opacity="0.9217361601976755" transform="matrix(0.8752157678168483,-0.4837327358829096,0.4837327358829096,0.8752157678168483,208.3950157707727,27.65161122417595)" fill="#ff7820"></use><use xlink:href="#bbburst-shape-3" width="42.03677752324309" opacity="0.5966092859226124" transform="matrix(0.9099032639559657,-0.41482050364257583,0.41482050364257583,0.9099032639559657,102.49972080814305,-97.79434432071713)" fill="#ff7820"></use><use xlink:href="#bbburst-shape-9" width="30.407426413955232" opacity="0.7587767747894449" transform="matrix(0.7449733578778407,0.6670942182722127,-0.6670942182722127,0.7449733578778407,549.9587798921323,116.47395493788446)" fill="none" stroke="#ff7820"></use><use xlink:href="#bbburst-shape-3" width="26.58129700270913" opacity="0.8145882581079232" transform="matrix(0.9967887474647849,0.08007616953616899,-0.08007616953616899,0.9967887474647849,490.5362681399402,42.61871337501435)" fill="#ff7820"></use><use xlink:href="#bbburst-shape-9" width="30.02614528296696" opacity="0.19853773091307225" transform="matrix(0.7371644428257378,0.6757133891180636,-0.6757133891180636,0.7371644428257378,299.91666782272785,124.4761163088533)" fill="none" stroke="#ff7820"></use><use xlink:href="#bbburst-shape-3" width="38.1752245792444" opacity="0.6579738574797609" transform="matrix(0.8877393263756395,0.4603464873398361,-0.4603464873398361,0.8877393263756395,654.2802171739359,-90.76547966912023)" fill="#fee440"></use><use xlink:href="#bbburst-shape-3" width="44.23626949099513" opacity="0.43235927981254163" transform="matrix(0.9899706349780314,-0.14127328792518928,0.14127328792518928,0.9899706349780314,68.23286034016533,-26.623637743577945)" fill="#fee440"></use><use xlink:href="#bbburst-shape-9" width="34.53414476833674" opacity="0.3920251976093213" transform="matrix(0.9999213724410146,-0.0125398937666022,0.0125398937666022,0.9999213724410146,270.72938179409925,-251.7877680682735)" fill="none" stroke="#ff7820"></use><use xlink:href="#bbburst-shape-3" width="42.91912333210338" opacity="0.322470090472741" transform="matrix(0.9689530816734819,0.24724466731451003,-0.24724466731451003,0.9689530816734819,184.43579985452635,89.5881265416204)" fill="#ff7820"></use><use xlink:href="#bbburst-shape-9" width="49.85525671490497" opacity="0.15071581283034696" transform="matrix(0.9218229127340384,0.3876112969954996,-0.3876112969954996,0.9218229127340384,700.5266249798948,-321.81152757294575)" fill="none" stroke="#ff7820"></use><use xlink:href="#bbburst-shape-9" width="42.65035110396137" opacity="0.15522172716308935" transform="matrix(0.8163582123269749,0.5775459022158375,-0.5775459022158375,0.8163582123269749,480.7451787381353,-295.208221048098)" fill="none" stroke="#ff7820"></use><use xlink:href="#bbburst-shape-3" width="41.38577508529294" opacity="0.24735639037292456" transform="matrix(0.9558031866651241,0.2940072590273818,-0.2940072590273818,0.9558031866651241,549.9013024959668,346.18692310196343)" fill="#ffc110"></use><use xlink:href="#bbburst-shape-9" width="45.21341529639322" opacity="0.12323388947957026" transform="matrix(0.8832821611701186,-0.4688417896888509,0.4688417896888509,0.8832821611701186,-3.5919565781508425,399.4660176411195)" fill="none" stroke="#fee440"></use><use xlink:href="#bbburst-shape-9" width="41.647494330962644" opacity="0.20050048319699187" transform="matrix(0.9899818193153345,-0.1411948916395368,0.1411948916395368,0.9899818193153345,674.6856714364869,81.91390795637915)" fill="none" stroke="#ff7820"></use><use xlink:href="#bbburst-shape-9" width="25.804318534885923" opacity="0.9016351839173848" transform="matrix(0.9500610300249945,-0.3120641588325172,0.3120641588325172,0.9500610300249945,239.04932190124734,61.149647578105316)" fill="none" stroke="#ff7820"></use><use xlink:href="#bbburst-shape-9" width="57.73395949646236" opacity="0.12036709299244053" transform="matrix(0.8226546329816959,0.568541427543984,-0.568541427543984,0.8226546329816959,943.4689884009483,257.6057423683303)" fill="none" stroke="#ffc110"></use><use xlink:href="#bbburst-shape-3" width="53.6217221258446" opacity="0.22131689550286127" transform="matrix(0.8724917405252224,-0.4886288598878172,0.4886288598878172,0.8724917405252224,413.7972121337581,326.0824470023529)" fill="#ff7820"></use><use xlink:href="#bbburst-shape-9" width="59.833470822157565" opacity="0.10127538895586985" transform="matrix(0.9876934235111524,-0.15640236939643654,0.15640236939643654,0.9876934235111524,-33.48224387812888,-207.74869900773166)" fill="none" stroke="#ff7820"></use><use xlink:href="#bbburst-shape-9" width="38.77424037107684" opacity="0.5756151864463116" transform="matrix(0.7448940233722894,-0.6671828039932108,0.6671828039932108,0.7448940233722894,65.24400299362225,298.17643131624453)" fill="none" stroke="#ffc110"></use><use xlink:href="#bbburst-shape-9" width="34.90496793741067" opacity="0.8132280398171781" transform="matrix(0.9999746377072235,-0.007122074298065199,0.007122074298065199,0.9999746377072235,312.6461211113226,-50.77709044742534)" fill="none" stroke="#ffc110"></use><use xlink:href="#bbburst-shape-3" width="47.63473376370176" opacity="0.3980957358228818" transform="matrix(0.9831760493091715,0.1826604939903801,-0.1826604939903801,0.9831760493091715,221.21966688211245,148.17388183652395)" fill="#ff7820"></use><use xlink:href="#bbburst-shape-3" width="47.83829798754393" opacity="0.432354337167131" transform="matrix(0.9063722713645231,-0.4224799470998774,0.4224799470998774,0.9063722713645231,374.7170872701296,-146.89577867638124)" fill="#ff7820"></use></svg>