<svg xmlns="http://www.w3.org/2000/svg" xmlns:xlink="http://www.w3.org/1999/xlink" viewBox="0 0 664.8 340" width="664.8" height="340"><path d="M 166.000,131.000 C 163.315,133.928 163.200,133.800 160.400,136.600" stroke-width="5.362" stroke="black" fill="none" stroke-linecap="round"></path><path d="M 160.400,136.600 C 158.355,138.146 158.515,138.328 156.400,139.800" stroke-width="4.589" stroke="black" fill="none" stroke-linecap="round"></path><path d="M 156.400,139.800 C 153.330,142.759 153.155,142.546 150.000,145.400" stroke-width="4.022" stroke="black" fill="none" stroke-linecap="round"></path><path d="M 150.000,145.400 C 141.648,151.864 141.730,151.959 133.200,158.200" stroke-width="2.828" stroke="black" fill="none" stroke-linecap="round"></path><path d="M 133.200,158.200 C 128.752,161.336 128.848,161.464 124.400,164.600" stroke-width="3.224" stroke="black" fill="none" stroke-linecap="round"></path><path d="M 124.400,164.600 C 120.702,167.282 120.752,167.336 117.200,170.200" stroke-width="3.518" stroke="black" fill="none" stroke-linecap="round"></path><path d="M 117.200,170.200 C 113.822,173.688 113.502,173.282 110.000,176.600" stroke-width="3.513" stroke="black" fill="none" stroke-linecap="round"></path><path d="M 110.000,176.600 C 104.883,179.413 105.422,180.088 100.400,183.000" stroke-width="3.398" stroke="black" fill="none" stroke-linecap="round"></path><path d="M 100.400,183.000 C 97.387,186.412 96.883,185.813 94.000,189.400" stroke-width="3.584" stroke="black" fill="none" stroke-linecap="round"></path><path d="M 94.000,189.400 C 90.123,191.914 90.587,192.412 86.800,195.000" stroke-width="3.583" stroke="black" fill="none" stroke-linecap="round"></path><path d="M 86.800,195.000 C 84.612,197.264 84.523,197.114 82.800,199.800" stroke-width="3.938" stroke="black" fill="none" stroke-linecap="round"></path><path d="M 82.800,199.800 C 80.561,202.873 80.612,202.864 78.800,206.200" stroke-width="3.856" stroke="black" fill="none" stroke-linecap="round"></path><path d="M 78.800,206.200 C 77.277,209.836 76.961,209.673 75.600,213.400" stroke-width="3.847" stroke="black" fill="none" stroke-linecap="round"></path><path d="M 75.600,213.400 C 73.931,216.567 74.077,216.636 72.400,219.800" stroke-width="3.925" stroke="black" fill="none" stroke-linecap="round"></path><path d="M 72.400,219.800 C 70.303,224.159 70.331,224.167 68.400,228.600" stroke-width="3.622" stroke="black" fill="none" stroke-linecap="round"></path><path d="M 68.400,228.600 C 66.559,232.522 66.703,232.559 65.200,236.600" stroke-width="3.646" stroke="black" fill="none" stroke-linecap="round"></path><path d="M 65.200,236.600 C 64.006,239.752 64.159,239.722 63.600,243.000" stroke-width="3.963" stroke="black" fill="none" stroke-linecap="round"></path><path d="M 63.600,243.000 C 63.401,246.212 63.206,246.152 63.600,249.400" stroke-width="4.049" stroke="black" fill="none" stroke-linecap="round"></path><path d="M 63.600,249.400 C 63.807,252.636 63.801,252.612 64.400,255.800" stroke-width="4.021" stroke="black" fill="none" stroke-linecap="round"></path><path d="M 64.400,255.800 C 64.849,259.130 65.007,259.036 66.000,262.200" stroke-width="4.043" stroke="black" fill="none" stroke-linecap="round"></path><path d="M 66.000,262.200 C 67.677,265.364 67.249,265.530 69.200,268.600" stroke-width="3.932" stroke="black" fill="none" stroke-linecap="round"></path><path d="M 69.200,268.600 C 70.723,272.236 70.877,272.164 72.400,275.800" stroke-width="3.817" stroke="black" fill="none" stroke-linecap="round"></path><path d="M 72.400,275.800 C 73.711,279.178 73.923,279.036 75.600,282.200" stroke-width="3.960" stroke="black" fill="none" stroke-linecap="round"></path><path d="M 75.600,282.200 C 78.094,285.333 77.711,285.578 80.400,288.600" stroke-width="3.811" stroke="black" fill="none" stroke-linecap="round"></path><path d="M 80.400,288.600 C 82.393,292.561 82.894,292.133 85.200,295.800" stroke-width="3.752" stroke="black" fill="none" stroke-linecap="round"></path><path d="M 85.200,295.800 C 87.812,298.466 87.593,298.561 90.800,300.600" stroke-width="3.820" stroke="black" fill="none" stroke-linecap="round"></path><path d="M 90.800,300.600 C 93.556,302.283 93.413,302.466 96.400,303.800" stroke-width="4.039" stroke="black" fill="none" stroke-linecap="round"></path><path d="M 96.400,303.800 C 99.515,305.592 99.556,305.483 102.800,307.000" stroke-width="3.875" stroke="black" fill="none" stroke-linecap="round"></path><path d="M 102.800,307.000 C 107.936,309.185 107.915,309.192 113.200,311.000" stroke-width="3.585" stroke="black" fill="none" stroke-linecap="round"></path><path d="M 113.200,311.000 C 119.490,313.553 119.536,313.185 126.000,315.000" stroke-width="3.265" stroke="black" fill="none" stroke-linecap="round"></path><path d="M 126.000,315.000 C 130.390,315.624 130.290,315.953 134.800,315.800" stroke-width="3.508" stroke="black" fill="none" stroke-linecap="round"></path><path d="M 134.800,315.800 C 140.400,315.800 140.390,316.024 146.000,315.800" stroke-width="3.425" stroke="black" fill="none" stroke-linecap="round"></path><path d="M 146.000,315.800 C 151.200,315.800 151.200,315.800 156.400,315.800" stroke-width="3.414" stroke="black" fill="none" stroke-linecap="round"></path><path d="M 156.400,315.800 C 161.200,315.800 161.200,315.800 166.000,315.800" stroke-width="3.484" stroke="black" fill="none" stroke-linecap="round"></path><path d="M 166.000,315.800 C 172.037,316.242 172.000,315.800 178.000,315.800" stroke-width="3.407" stroke="black" fill="none" stroke-linecap="round"></path><path d="M 178.000,315.800 C 182.800,315.000 182.837,315.442 187.600,314.200" stroke-width="3.524" stroke="black" fill="none" stroke-linecap="round"></path><path d="M 187.600,314.200 C 192.559,313.954 192.400,313.400 197.200,312.600" stroke-width="3.612" stroke="black" fill="none" stroke-linecap="round"></path><path d="M 197.200,312.600 C 201.920,310.375 202.159,311.154 206.800,308.600" stroke-width="3.526" stroke="black" fill="none" stroke-linecap="round"></path><path d="M 206.800,308.600 C 210.937,307.745 210.720,307.175 214.800,306.200" stroke-width="3.643" stroke="black" fill="none" stroke-linecap="round"></path><path d="M 214.800,306.200 C 218.922,304.416 218.937,304.545 222.800,302.200" stroke-width="3.673" stroke="black" fill="none" stroke-linecap="round"></path><path d="M 222.800,302.200 C 227.232,299.449 227.322,299.616 231.600,296.600" stroke-width="3.540" stroke="black" fill="none" stroke-linecap="round"></path><path d="M 231.600,296.600 C 236.334,293.296 236.432,293.449 241.200,290.200" stroke-width="3.405" stroke="black" fill="none" stroke-linecap="round"></path><path d="M 241.200,290.200 C 245.485,288.186 245.134,287.696 249.200,285.400" stroke-width="3.561" stroke="black" fill="none" stroke-linecap="round"></path><path d="M 249.200,285.400 C 253.101,281.684 253.485,282.186 257.200,278.200" stroke-width="3.420" stroke="black" fill="none" stroke-linecap="round"></path><path d="M 257.200,278.200 C 261.479,275.289 261.101,274.884 265.200,271.800" stroke-width="3.482" stroke="black" fill="none" stroke-linecap="round"></path><path d="M 265.200,271.800 C 267.618,269.015 267.879,269.289 270.000,266.200" stroke-width="3.780" stroke="black" fill="none" stroke-linecap="round"></path><path d="M 270.000,266.200 C 272.071,263.856 272.018,263.815 274.000,261.400" stroke-width="3.962" stroke="black" fill="none" stroke-linecap="round"></path><path d="M 274.000,261.400 C 276.400,258.200 276.471,258.256 278.800,255.000" stroke-width="3.811" stroke="black" fill="none" stroke-linecap="round"></path><path d="M 278.800,255.000 C 281.384,251.924 281.200,251.800 283.600,248.600" stroke-width="3.821" stroke="black" fill="none" stroke-linecap="round"></path><path d="M 283.600,248.600 C 286.231,244.720 286.184,244.724 288.400,240.600" stroke-width="3.629" stroke="black" fill="none" stroke-linecap="round"></path><path d="M 288.400,240.600 C 289.761,236.873 290.231,237.120 291.600,233.400" stroke-width="3.777" stroke="black" fill="none" stroke-linecap="round"></path><path d="M 291.600,233.400 C 293.730,230.273 293.361,230.073 295.600,227.000" stroke-width="3.859" stroke="black" fill="none" stroke-linecap="round"></path><path d="M 295.600,227.000 C 297.456,224.782 296.930,224.673 298.000,222.200" stroke-width="4.141" stroke="black" fill="none" stroke-linecap="round"></path><path d="M 298.000,222.200 C 298.065,216.946 299.056,217.182 298.800,211.800" stroke-width="4.211" stroke="black" fill="none" stroke-linecap="round"></path><path d="M 298.800,211.800 C 299.754,208.630 299.265,208.546 300.400,205.400" stroke-width="4.099" stroke="black" fill="none" stroke-linecap="round"></path><path d="M 300.400,205.400 C 300.826,202.604 300.954,202.630 301.200,199.800" stroke-width="4.183" stroke="black" fill="none" stroke-linecap="round"></path><path d="M 301.200,199.800 C 301.786,196.612 301.626,196.604 302.000,193.400" stroke-width="4.109" stroke="black" fill="none" stroke-linecap="round"></path><path d="M 302.000,193.400 C 302.147,190.594 302.186,190.612 302.000,187.800" stroke-width="4.194" stroke="black" fill="none" stroke-linecap="round"></path><path d="M 302.000,187.800 C 302.057,182.913 301.747,182.994 301.200,178.200" stroke-width="4.325" stroke="black" fill="none" stroke-linecap="round"></path><path d="M 301.200,178.200 C 300.188,174.132 300.457,174.113 298.800,170.200" stroke-width="4.457" stroke="black" fill="none" stroke-linecap="round"></path><path d="M 298.800,170.200 C 297.921,167.208 297.788,167.332 296.400,164.600" stroke-width="4.182" stroke="black" fill="none" stroke-linecap="round"></path><path d="M 296.400,164.600 C 294.854,162.555 295.121,162.408 293.200,160.600" stroke-width="4.279" stroke="black" fill="none" stroke-linecap="round"></path><path d="M 293.200,160.600 C 290.599,157.199 290.454,157.355 287.600,154.200" stroke-width="4.431" stroke="black" fill="none" stroke-linecap="round"></path><path d="M 287.600,154.200 C 284.918,151.644 284.999,151.599 282.000,149.400" stroke-width="4.579" stroke="black" fill="none" stroke-linecap="round"></path><path d="M 282.000,149.400 C 279.757,147.479 279.718,147.644 277.200,146.200" stroke-width="4.258" stroke="black" fill="none" stroke-linecap="round"></path><path d="M 277.200,146.200 C 274.647,145.724 274.957,145.079 272.400,144.600" stroke-width="4.312" stroke="black" fill="none" stroke-linecap="round"></path><path d="M 272.400,144.600 C 269.460,142.015 269.048,142.924 266.000,140.600" stroke-width="4.512" stroke="black" fill="none" stroke-linecap="round"></path><path d="M 266.000,140.600 C 260.277,139.317 260.660,138.415 254.800,137.400" stroke-width="4.281" stroke="black" fill="none" stroke-linecap="round"></path><path d="M 254.800,137.400 C 252.485,135.994 252.277,136.517 250.000,135.000" stroke-width="4.277" stroke="black" fill="none" stroke-linecap="round"></path><path d="M 250.000,135.000 C 246.400,133.800 246.485,133.594 242.800,132.600" stroke-width="4.497" stroke="black" fill="none" stroke-linecap="round"></path><path d="M 242.800,132.600 C 240.457,131.578 240.400,131.800 238.000,131.000" stroke-width="4.338" stroke="black" fill="none" stroke-linecap="round"></path><path d="M 238.000,131.000 C 233.557,130.390 233.657,129.978 229.200,129.400" stroke-width="4.379" stroke="black" fill="none" stroke-linecap="round"></path><path d="M 229.200,129.400 C 224.861,127.744 224.757,128.390 220.400,127.000" stroke-width="4.418" stroke="black" fill="none" stroke-linecap="round"></path><path d="M 220.400,127.000 C 217.593,127.155 217.661,126.544 214.800,127.000" stroke-width="4.286" stroke="black" fill="none" stroke-linecap="round"></path><path d="M 214.800,127.000 C 210.396,126.640 210.393,126.755 206.000,126.200" stroke-width="4.427" stroke="black" fill="none" stroke-linecap="round"></path><path d="M 206.000,126.200 C 202.412,125.581 202.396,125.840 198.800,125.400" stroke-width="4.572" stroke="black" fill="none" stroke-linecap="round"></path><path d="M 198.800,125.400 C 194.383,125.157 194.412,125.181 190.000,125.400" stroke-width="4.499" stroke="black" fill="none" stroke-linecap="round"></path><path d="M 190.000,125.400 C 187.206,125.849 187.183,125.557 184.400,126.200" stroke-width="4.880" stroke="black" fill="none" stroke-linecap="round"></path><path d="M 184.400,126.200 C 180.647,126.081 180.806,126.649 177.200,127.000" stroke-width="4.707" stroke="black" fill="none" stroke-linecap="round"></path><path d="M 177.200,127.000 C 174.200,127.600 174.647,127.681 172.400,129.400" stroke-width="5.215" stroke="black" fill="none" stroke-linecap="round"></path><path d="M 172.400,129.400 C 170.482,131.630 170.600,131.200 170.000,134.200" stroke-width="5.385" stroke="black" fill="none" stroke-linecap="round"></path><path d="M 170.000,134.200 C 170.000,138.200 169.282,138.030 170.000,142.200" stroke-width="5.145" stroke="black" fill="none" stroke-linecap="round"></path><path d="M 170.000,142.200 C 169.198,145.989 170.000,145.800 170.000,149.400" stroke-width="4.782" stroke="black" fill="none" stroke-linecap="round"></path><path d="M 170.000,149.400 C 171.335,152.770 170.798,152.789 173.200,155.800" stroke-width="4.669" stroke="black" fill="none" stroke-linecap="round"></path><path d="M 173.200,155.800 C 174.473,158.148 174.535,157.970 176.400,159.800" stroke-width="4.421" stroke="black" fill="none" stroke-linecap="round"></path><path d="M 176.400,159.800 C 180.213,162.937 180.073,162.948 184.400,165.400" stroke-width="4.364" stroke="black" fill="none" stroke-linecap="round"></path><path d="M 184.400,165.400 C 187.117,166.839 187.013,166.937 190.000,167.800" stroke-width="4.206" stroke="black" fill="none" stroke-linecap="round"></path><path d="M 190.000,167.800 C 194.357,169.190 194.317,169.239 198.800,170.200" stroke-width="3.809" stroke="black" fill="none" stroke-linecap="round"></path><path d="M 198.800,170.200 C 203.189,171.065 203.157,171.190 207.600,171.800" stroke-width="3.666" stroke="black" fill="none" stroke-linecap="round"></path><path d="M 207.600,171.800 C 210.396,172.226 210.389,172.265 213.200,172.600" stroke-width="3.996" stroke="black" fill="none" stroke-linecap="round"></path><path d="M 213.200,172.600 C 216.386,173.221 216.396,173.026 219.600,173.400" stroke-width="4.053" stroke="black" fill="none" stroke-linecap="round"></path><path d="M 219.600,173.400 C 223.600,173.400 223.586,173.621 227.600,173.400" stroke-width="3.891" stroke="black" fill="none" stroke-linecap="round"></path><path d="M 227.600,173.400 C 232.400,173.400 232.400,173.400 237.200,173.400" stroke-width="3.679" stroke="black" fill="none" stroke-linecap="round"></path><path d="M 237.200,173.400 C 241.605,173.557 241.600,173.400 246.000,173.400" stroke-width="3.698" stroke="black" fill="none" stroke-linecap="round"></path><path d="M 246.000,173.400 C 252.801,173.012 252.805,173.157 259.600,172.600" stroke-width="3.276" stroke="black" fill="none" stroke-linecap="round"></path><path d="M 259.600,172.600 C 265.993,171.988 266.001,172.212 272.400,171.800" stroke-width="3.167" stroke="black" fill="none" stroke-linecap="round"></path><path d="M 272.400,171.800 C 279.606,172.000 279.593,171.588 286.800,171.800" stroke-width="3.081" stroke="black" fill="none" stroke-linecap="round"></path><path d="M 286.800,171.800 C 293.995,171.212 294.006,171.600 301.200,171.000" stroke-width="2.994" stroke="black" fill="none" stroke-linecap="round"></path><path d="M 301.200,171.000 C 307.600,171.000 307.595,170.812 314.000,171.000" stroke-width="3.141" stroke="black" fill="none" stroke-linecap="round"></path><path d="M 314.000,171.000 C 322.019,171.389 322.000,171.000 330.000,171.000" stroke-width="2.967" stroke="black" fill="none" stroke-linecap="round"></path><path d="M 330.000,171.000 C 338.382,169.937 338.419,170.589 346.800,169.400" stroke-width="2.803" stroke="black" fill="none" stroke-linecap="round"></path><path d="M 346.800,169.400 C 357.196,168.804 357.182,168.737 367.600,168.600" stroke-width="2.605" stroke="black" fill="none" stroke-linecap="round"></path><path d="M 367.600,168.600 C 377.603,168.789 377.596,168.404 387.600,168.600" stroke-width="2.591" stroke="black" fill="none" stroke-linecap="round"></path><path d="M 387.600,168.600 C 398.849,168.729 398.803,168.389 410.000,167.800" stroke-width="2.473" stroke="black" fill="none" stroke-linecap="round"></path><path d="M 410.000,167.800 C 418.005,166.630 418.049,167.129 426.000,165.400" stroke-width="2.691" stroke="black" fill="none" stroke-linecap="round"></path><path d="M 426.000,165.400 C 433.641,164.400 433.605,164.230 441.200,163.000" stroke-width="2.812" stroke="black" fill="none" stroke-linecap="round"></path><path d="M 441.200,163.000 C 444.663,162.770 444.441,162.400 447.600,161.400" stroke-width="3.579" stroke="black" fill="none" stroke-linecap="round"></path><path d="M 447.600,161.400 C 450.695,159.726 450.663,159.970 453.200,157.400" stroke-width="4.269" stroke="black" fill="none" stroke-linecap="round"></path><path d="M 453.200,157.400 C 456.686,154.593 456.295,154.526 458.800,151.000" stroke-width="4.410" stroke="black" fill="none" stroke-linecap="round"></path><path d="M 458.800,151.000 C 460.549,147.489 460.686,147.793 461.200,143.800" stroke-width="4.523" stroke="black" fill="none" stroke-linecap="round"></path><path d="M 461.200,143.800 C 462.666,139.494 461.749,140.689 461.200,137.400" stroke-width="4.838" stroke="black" fill="none" stroke-linecap="round"></path><path d="M 461.200,137.400 C 458.455,136.208 459.866,135.494 455.600,135.800" stroke-width="5.073" stroke="black" fill="none" stroke-linecap="round"></path><path d="M 455.600,135.800 C 452.790,135.626 452.855,135.408 450.000,135.800" stroke-width="4.870" stroke="black" fill="none" stroke-linecap="round"></path><path d="M 450.000,135.800 C 446.031,135.269 446.390,136.026 442.800,136.600" stroke-width="4.909" stroke="black" fill="none" stroke-linecap="round"></path><path d="M 442.800,136.600 C 439.502,138.879 439.231,138.069 436.400,141.400" stroke-width="4.635" stroke="black" fill="none" stroke-linecap="round"></path><path d="M 436.400,141.400 C 432.793,143.835 433.102,144.079 430.000,147.000" stroke-width="4.520" stroke="black" fill="none" stroke-linecap="round"></path><path d="M 430.000,147.000 C 427.166,150.977 426.793,150.635 424.400,155.000" stroke-width="4.414" stroke="black" fill="none" stroke-linecap="round"></path><path d="M 424.400,155.000 C 422.711,157.345 422.766,157.377 421.200,159.800" stroke-width="4.214" stroke="black" fill="none" stroke-linecap="round"></path><path d="M 421.200,159.800 C 419.440,162.520 419.511,162.545 418.000,165.400" stroke-width="4.068" stroke="black" fill="none" stroke-linecap="round"></path><path d="M 418.000,165.400 C 416.693,168.159 416.640,168.120 415.600,171.000" stroke-width="4.119" stroke="black" fill="none" stroke-linecap="round"></path><path d="M 415.600,171.000 C 414.493,173.333 414.693,173.359 414.000,175.800" stroke-width="4.226" stroke="black" fill="none" stroke-linecap="round"></path><path d="M 414.000,175.800 C 413.579,179.398 413.293,179.333 413.200,183.000" stroke-width="4.073" stroke="black" fill="none" stroke-linecap="round"></path><path d="M 413.200,183.000 C 412.968,187.024 412.779,186.998 412.400,191.000" stroke-width="3.837" stroke="black" fill="none" stroke-linecap="round"></path><path d="M 412.400,191.000 C 411.566,195.394 411.768,195.424 410.800,199.800" stroke-width="3.674" stroke="black" fill="none" stroke-linecap="round"></path><path d="M 410.800,199.800 C 409.779,204.573 409.966,204.594 409.200,209.400" stroke-width="3.606" stroke="black" fill="none" stroke-linecap="round"></path><path d="M 409.200,209.400 C 409.254,214.679 408.579,214.573 408.400,219.800" stroke-width="3.521" stroke="black" fill="none" stroke-linecap="round"></path><path d="M 408.400,219.800 C 407.106,224.177 407.654,224.279 406.000,228.600" stroke-width="3.564" stroke="black" fill="none" stroke-linecap="round"></path><path d="M 406.000,228.600 C 405.338,232.236 405.106,232.177 404.400,235.800" stroke-width="3.808" stroke="black" fill="none" stroke-linecap="round"></path><path d="M 404.400,235.800 C 403.200,239.800 403.338,239.836 402.000,243.800" stroke-width="3.783" stroke="black" fill="none" stroke-linecap="round"></path><path d="M 402.000,243.800 C 401.041,247.889 400.800,247.800 399.600,251.800" stroke-width="3.775" stroke="black" fill="none" stroke-linecap="round"></path><path d="M 399.600,251.800 C 397.979,255.391 398.241,255.489 396.400,259.000" stroke-width="3.870" stroke="black" fill="none" stroke-linecap="round"></path><path d="M 396.400,259.000 C 395.503,261.970 395.179,261.791 394.000,264.600" stroke-width="4.056" stroke="black" fill="none" stroke-linecap="round"></path><path d="M 394.000,264.600 C 392.097,267.475 392.303,267.570 390.000,270.200" stroke-width="4.065" stroke="black" fill="none" stroke-linecap="round"></path><path d="M 390.000,270.200 C 388.200,272.800 388.097,272.675 386.000,275.000" stroke-width="4.099" stroke="black" fill="none" stroke-linecap="round"></path><path d="M 386.000,275.000 C 383.782,277.279 383.800,277.200 381.200,279.000" stroke-width="4.109" stroke="black" fill="none" stroke-linecap="round"></path><path d="M 381.200,279.000 C 378.831,280.266 378.982,280.479 376.400,281.400" stroke-width="4.224" stroke="black" fill="none" stroke-linecap="round"></path><path d="M 376.400,281.400 C 372.673,282.761 372.831,283.066 369.200,284.600" stroke-width="4.001" stroke="black" fill="none" stroke-linecap="round"></path><path d="M 369.200,284.600 C 365.938,286.508 365.873,286.361 362.800,288.600" stroke-width="3.927" stroke="black" fill="none" stroke-linecap="round"></path><path d="M 362.800,288.600 C 360.142,290.835 359.938,290.508 357.200,292.600" stroke-width="3.981" stroke="black" fill="none" stroke-linecap="round"></path><path d="M 357.200,292.600 C 354.041,294.288 354.142,294.435 350.800,295.800" stroke-width="3.965" stroke="black" fill="none" stroke-linecap="round"></path><path d="M 350.800,295.800 C 348.068,297.188 348.041,297.088 345.200,298.200" stroke-width="4.087" stroke="black" fill="none" stroke-linecap="round"></path><path d="M 345.200,298.200 C 341.236,299.538 341.268,299.588 337.200,300.600" stroke-width="3.861" stroke="black" fill="none" stroke-linecap="round"></path><path d="M 337.200,300.600 C 333.632,301.595 333.636,301.538 330.000,302.200" stroke-width="3.904" stroke="black" fill="none" stroke-linecap="round"></path><path d="M 330.000,302.200 C 326.410,302.774 326.432,302.795 322.800,303.000" stroke-width="4.358" stroke="black" fill="none" stroke-linecap="round"></path><path d="M 322.800,303.000 C 319.790,303.809 320.010,303.174 317.200,303.000" stroke-width="4.678" stroke="black" fill="none" stroke-linecap="round"></path><path d="M 317.200,303.000 C 311.930,302.088 313.390,301.809 310.000,299.000" stroke-width="4.921" stroke="black" fill="none" stroke-linecap="round"></path><path d="M 310.000,299.000 C 308.641,294.489 307.930,295.688 309.200,290.200" stroke-width="4.612" stroke="black" fill="none" stroke-linecap="round"></path><path d="M 309.200,290.200 C 309.651,284.495 309.841,285.289 312.400,280.600" stroke-width="4.393" stroke="black" fill="none" stroke-linecap="round"></path><path d="M 312.400,280.600 C 315.480,278.371 314.451,277.695 318.800,276.600" stroke-width="4.538" stroke="black" fill="none" stroke-linecap="round"></path><path d="M 318.800,276.600 C 321.485,274.589 321.480,275.171 324.400,274.200" stroke-width="4.298" stroke="black" fill="none" stroke-linecap="round"></path><path d="M 324.400,274.200 C 327.956,273.781 327.485,273.789 330.800,275.000" stroke-width="4.845" stroke="black" fill="none" stroke-linecap="round"></path><path d="M 330.800,275.000 C 333.402,276.802 333.556,276.181 335.600,279.000" stroke-width="4.764" stroke="black" fill="none" stroke-linecap="round"></path><path d="M 335.600,279.000 C 337.200,281.000 337.402,280.802 338.800,283.000" stroke-width="4.488" stroke="black" fill="none" stroke-linecap="round"></path><path d="M 338.800,283.000 C 340.091,285.315 340.400,285.000 342.000,287.000" stroke-width="4.371" stroke="black" fill="none" stroke-linecap="round"></path><path d="M 342.000,287.000 C 347.303,290.874 346.891,291.315 352.400,295.000" stroke-width="4.194" stroke="black" fill="none" stroke-linecap="round"></path><path d="M 352.400,295.000 C 355.133,298.670 355.703,297.674 358.800,300.600" stroke-width="4.385" stroke="black" fill="none" stroke-linecap="round"></path><path d="M 358.800,300.600 C 363.126,302.222 362.733,302.670 367.600,303.000" stroke-width="4.400" stroke="black" fill="none" stroke-linecap="round"></path><path d="M 367.600,303.000 C 372.403,303.800 372.326,303.822 377.200,303.800" stroke-width="4.368" stroke="black" fill="none" stroke-linecap="round"></path><path d="M 377.200,303.800 C 381.202,303.421 381.203,303.800 385.200,303.000" stroke-width="3.969" stroke="black" fill="none" stroke-linecap="round"></path><path d="M 385.200,303.000 C 388.796,302.560 388.802,302.621 392.400,302.200" stroke-width="3.900" stroke="black" fill="none" stroke-linecap="round"></path><path d="M 392.400,302.200 C 396.796,301.752 396.796,301.760 401.200,301.400" stroke-width="4.261" stroke="black" fill="none" stroke-linecap="round"></path><path d="M 401.200,301.400 C 406.811,301.108 406.796,300.952 412.400,300.600" stroke-width="4.238" stroke="black" fill="none" stroke-linecap="round"></path><path d="M 412.400,300.600 C 415.597,300.177 415.611,300.308 418.800,299.800" stroke-width="4.125" stroke="black" fill="none" stroke-linecap="round"></path><path d="M 418.800,299.800 C 422.441,299.628 422.397,299.377 426.000,299.000" stroke-width="3.944" stroke="black" fill="none" stroke-linecap="round"></path><path d="M 426.000,299.000 C 429.189,298.155 429.241,298.428 432.400,297.400" stroke-width="4.019" stroke="black" fill="none" stroke-linecap="round"></path><path d="M 432.400,297.400 C 435.951,296.256 435.989,296.555 439.600,295.800" stroke-width="3.899" stroke="black" fill="none" stroke-linecap="round"></path><path d="M 439.600,295.800 C 445.652,295.793 445.551,295.056 451.600,295.000" stroke-width="3.515" stroke="black" fill="none" stroke-linecap="round"></path><path d="M 451.600,295.000 C 457.593,293.763 457.652,294.193 463.600,292.600" stroke-width="3.279" stroke="black" fill="none" stroke-linecap="round"></path><path d="M 463.600,292.600 C 470.094,291.777 469.993,291.363 476.400,290.200" stroke-width="3.152" stroke="black" fill="none" stroke-linecap="round"></path><path d="M 476.400,290.200 C 482.961,288.600 482.894,288.577 489.200,286.200" stroke-width="3.147" stroke="black" fill="none" stroke-linecap="round"></path><path d="M 489.200,286.200 C 493.309,284.388 493.361,284.600 497.200,282.200" stroke-width="3.506" stroke="black" fill="none" stroke-linecap="round"></path><path d="M 497.200,282.200 C 499.669,280.695 499.709,280.788 502.000,279.000" stroke-width="3.923" stroke="black" fill="none" stroke-linecap="round"></path><path d="M 502.000,279.000 C 504.267,277.667 504.069,277.495 506.000,275.800" stroke-width="4.194" stroke="black" fill="none" stroke-linecap="round"></path><path d="M 506.000,275.800 C 509.406,271.946 509.467,272.067 512.400,267.800" stroke-width="4.263" stroke="black" fill="none" stroke-linecap="round"></path><path d="M 512.400,267.800 C 514.552,264.685 514.606,264.746 516.400,261.400" stroke-width="3.999" stroke="black" fill="none" stroke-linecap="round"></path><path d="M 516.400,261.400 C 518.088,258.241 518.152,258.285 519.600,255.000" stroke-width="3.971" stroke="black" fill="none" stroke-linecap="round"></path><path d="M 519.600,255.000 C 520.639,252.122 520.888,252.241 522.000,249.400" stroke-width="4.042" stroke="black" fill="none" stroke-linecap="round"></path><path d="M 522.000,249.400 C 524.290,244.936 524.239,244.922 526.800,240.600" stroke-width="3.676" stroke="black" fill="none" stroke-linecap="round"></path></svg>